# xmcd
#
# Track frame offsets:
#	150
#	9639
#	20856
#	35652
#	45229
#	57810
#	72383
#	84930
#	95585
#	124007
#	133157
#	147575
#	162812
#
# Disc length: 2334 seconds
#
# Revision: 1
# Processed by: cddbd v1.5.2PL0 Copyright (c) Steve Scherf et al.
# Submitted via: audiograbber 1.83.01
#
DISCID=b2091c0d
DTITLE=Greenhorns - Pisne vetru z hor
DYEAR=1900
DGENRE=Country
TTITLE0=Banjo z mlznych hor
TTITLE1=Zpivam pisne vetru z hor
TTITLE2=Odvolejte kneze
TTITLE3=Rychlik
TTITLE4=Bila kytka
TTITLE5=Balada o Ira Hayesovi
TTITLE6=Loisie
TTITLE7=Duel
TTITLE8=Feleena z El Pasa
TTITLE9=Jizni vlak
TTITLE10=Jarni zprava
TTITLE11=Jeste je cas
TTITLE12=Bluegrassovy part c.1
EXTD=
EXTT0=
EXTT1=
EXTT2=
EXTT3=
EXTT4=
EXTT5=
EXTT6=
EXTT7=
EXTT8=
EXTT9=
EXTT10=
EXTT11=
EXTT12=
PLAYORDER=
